<svg width="19" height="19" viewBox="0 0 19 19" fill="none" xmlns="http://www.w3.org/2000/svg">
<path d="M19 9.53539C19 4.26857 14.7473 0 9.5 0C4.25273 0 0 4.26857 0 9.53539C0 14.0051 3.06895 17.7597 7.20664 18.7914V12.4481H5.24727V9.53539H7.20664V8.28014C7.20664 5.03588 8.66875 3.53107 11.8453 3.53107C12.4465 3.53107 13.4855 3.65026 13.9123 3.76946V6.40659C13.6896 6.38424 13.3 6.36934 12.8139 6.36934C11.2553 6.36934 10.6541 6.96158 10.6541 8.4999V9.53539H13.7564L13.2221 12.4481H10.6504V19C15.3559 18.4301 19 14.4111 19 9.53539Z" fill="#FEFDF2"/>
</svg>
