<svg width="22" height="30" viewBox="0 0 22 30" fill="none" xmlns="http://www.w3.org/2000/svg">
<path d="M17.047 12.7383C17.0591 12.9023 17.0591 13.0664 17.0591 13.2305C17.0591 18.2344 13.1409 24 5.97972 24C3.77348 24 1.724 23.3789 0 22.3008C0.313464 22.3359 0.614831 22.3477 0.940355 22.3477C2.76076 22.3477 4.43655 21.75 5.77476 20.7305C4.06282 20.6953 2.62817 19.6055 2.13387 18.1055C2.37501 18.1406 2.61611 18.164 2.86931 18.164C3.21892 18.164 3.56856 18.1172 3.89405 18.0352C2.10979 17.6836 0.771544 16.1601 0.771544 14.3203V14.2734C1.28993 14.5547 1.89277 14.7305 2.53169 14.7539C1.48282 14.0742 0.795665 12.914 0.795665 11.6015C0.795665 10.8984 0.988523 10.2539 1.32611 9.69139C3.243 11.9883 6.12437 13.4882 9.35531 13.6523C9.29504 13.3711 9.25886 13.0781 9.25886 12.7852C9.25886 10.6992 10.9949 9 13.1529 9C14.2741 9 15.2868 9.45703 15.9981 10.1953C16.8782 10.0313 17.7221 9.71484 18.4696 9.28125C18.1802 10.1602 17.5653 10.8985 16.7576 11.3672C17.5413 11.2852 18.3008 11.0742 19 10.7813C18.4696 11.5312 17.8065 12.1992 17.047 12.7383Z" fill="#FEFDF2"/>
</svg>
